<mxfile host="app.diagrams.net" agent="Mozilla/5.0 (Windows NT 10.0; Win64; x64) AppleWebKit/537.36 (KHTML, like Gecko) Chrome/140.0.0.0 Safari/537.36" version="28.2.4">
  <diagram name="Página-1" id="NtubVgu5_U1rpeV-C_-G">
    <mxGraphModel dx="1691" dy="1640" grid="1" gridSize="10" guides="1" tooltips="1" connect="1" arrows="1" fold="1" page="1" pageScale="1" pageWidth="827" pageHeight="1169" math="0" shadow="0">
      <root>
        <mxCell id="0" />
        <mxCell id="1" parent="0" />
        <mxCell id="PKN3ZlRZeN5BIrlGkkB1-1" value="Enunciado 2 Modelo Entidad Interrelación&lt;br&gt;Se desea diseñar una base de datos sobre la información de las reservas de una empresa&lt;br&gt;dedicada al alquiler de automóviles teniendo en cuenta que:&lt;br&gt;Un determinado &lt;font style=&quot;color: light-dark(rgb(0, 0, 0), rgb(204, 0, 0));&quot;&gt;cliente &lt;/font&gt;puede tener en un momento dado hechas varias&lt;div&gt;&amp;nbsp;&lt;font style=&quot;color: light-dark(rgb(0, 0, 0), rgb(0, 127, 255));&quot;&gt;reservas&lt;/font&gt;(cod_reserva, descripción)&amp;nbsp;&lt;/div&gt;&lt;div&gt;De cada&amp;nbsp;&lt;/div&gt;&lt;div&gt;&lt;font style=&quot;color: light-dark(rgb(0, 0, 0), rgb(255, 0, 0));&quot;&gt;cliente &lt;/font&gt;&lt;font style=&quot;color: light-dark(rgb(0, 0, 0), rgb(204, 0, 0));&quot;&gt;se desea almacenar su DNI, nombre, dirección y teléfono.&amp;nbsp;&lt;/font&gt;&lt;/div&gt;&lt;div&gt;&lt;font style=&quot;color: light-dark(rgb(0, 0, 0), rgb(204, 0, 0));&quot;&gt;Además dos clientes se diferencian por un código único.&lt;/font&gt;&lt;br&gt;&lt;br&gt;&lt;/div&gt;&lt;div&gt;Cada cliente puede ser avalado por otro cliente de la empresa&lt;br&gt;Una reserva la realiza un único cliente pero puede involucrar a varios coches&lt;br&gt;Es importante registrar , &lt;font style=&quot;color: light-dark(rgb(0, 0, 0), rgb(0, 0, 204));&quot;&gt;el precio del alquiler&lt;/font&gt; de cada uno de los coches y el precio total de la&lt;br&gt;reserva .&lt;br&gt;No se mantienen los datos de reserva anteriores. (Indica que no queremos Histórico)&lt;br&gt;Todo &lt;font style=&quot;color: light-dark(rgb(0, 0, 0), rgb(255, 255, 0));&quot;&gt;coche &lt;/font&gt;tiene siempre asignado un determinado garaje (Cod_garaje) que no puede&lt;br&gt;cambiar. De cada coche se requiere la matrícula. El modelo, el color y la marca.&lt;/div&gt;" style="text;whiteSpace=wrap;html=1;" vertex="1" parent="1">
          <mxGeometry x="-110" y="-50" width="560" height="210" as="geometry" />
        </mxCell>
        <mxCell id="PKN3ZlRZeN5BIrlGkkB1-19" value="" style="edgeStyle=orthogonalEdgeStyle;rounded=0;orthogonalLoop=1;jettySize=auto;html=1;" edge="1" parent="1" source="PKN3ZlRZeN5BIrlGkkB1-2" target="PKN3ZlRZeN5BIrlGkkB1-18">
          <mxGeometry relative="1" as="geometry" />
        </mxCell>
        <mxCell id="PKN3ZlRZeN5BIrlGkkB1-2" value="Cliente" style="whiteSpace=wrap;html=1;aspect=fixed;" vertex="1" parent="1">
          <mxGeometry y="440" width="80" height="80" as="geometry" />
        </mxCell>
        <mxCell id="PKN3ZlRZeN5BIrlGkkB1-4" value="codigo" style="ellipse;whiteSpace=wrap;html=1;fillColor=#60a917;fontColor=#ffffff;strokeColor=#2D7600;" vertex="1" parent="1">
          <mxGeometry x="240" y="550" width="50" height="30" as="geometry" />
        </mxCell>
        <mxCell id="PKN3ZlRZeN5BIrlGkkB1-5" value="" style="endArrow=none;html=1;rounded=0;entryX=0;entryY=0.5;entryDx=0;entryDy=0;exitX=0.5;exitY=1;exitDx=0;exitDy=0;" edge="1" parent="1" target="PKN3ZlRZeN5BIrlGkkB1-4">
          <mxGeometry width="50" height="50" relative="1" as="geometry">
            <mxPoint x="220" y="520" as="sourcePoint" />
            <mxPoint x="279" y="580" as="targetPoint" />
          </mxGeometry>
        </mxCell>
        <mxCell id="PKN3ZlRZeN5BIrlGkkB1-6" value="&lt;font style=&quot;font-size: 9px;&quot;&gt;descripcion&lt;/font&gt;" style="ellipse;whiteSpace=wrap;html=1;" vertex="1" parent="1">
          <mxGeometry x="240" y="580" width="50" height="30" as="geometry" />
        </mxCell>
        <mxCell id="PKN3ZlRZeN5BIrlGkkB1-7" value="" style="endArrow=none;html=1;rounded=0;entryX=-0.017;entryY=0.657;entryDx=0;entryDy=0;entryPerimeter=0;exitX=0.5;exitY=1;exitDx=0;exitDy=0;" edge="1" parent="1" source="PKN3ZlRZeN5BIrlGkkB1-18" target="PKN3ZlRZeN5BIrlGkkB1-6">
          <mxGeometry width="50" height="50" relative="1" as="geometry">
            <mxPoint x="220" y="520" as="sourcePoint" />
            <mxPoint x="266" y="610" as="targetPoint" />
          </mxGeometry>
        </mxCell>
        <mxCell id="PKN3ZlRZeN5BIrlGkkB1-8" value="DNI" style="ellipse;whiteSpace=wrap;html=1;fillColor=#60a917;fontColor=#ffffff;strokeColor=#2D7600;" vertex="1" parent="1">
          <mxGeometry x="-130" y="410" width="50" height="30" as="geometry" />
        </mxCell>
        <mxCell id="PKN3ZlRZeN5BIrlGkkB1-9" value="&lt;font style=&quot;font-size: 9px;&quot;&gt;nombre&lt;/font&gt;" style="ellipse;whiteSpace=wrap;html=1;" vertex="1" parent="1">
          <mxGeometry x="-130" y="440" width="50" height="30" as="geometry" />
        </mxCell>
        <mxCell id="PKN3ZlRZeN5BIrlGkkB1-10" value="&lt;font style=&quot;font-size: 9px;&quot;&gt;direccion&lt;/font&gt;" style="ellipse;whiteSpace=wrap;html=1;" vertex="1" parent="1">
          <mxGeometry x="-130" y="470" width="50" height="30" as="geometry" />
        </mxCell>
        <mxCell id="PKN3ZlRZeN5BIrlGkkB1-11" value="&lt;font style=&quot;font-size: 9px;&quot;&gt;telefono&lt;/font&gt;" style="ellipse;whiteSpace=wrap;html=1;" vertex="1" parent="1">
          <mxGeometry x="-130" y="500" width="50" height="30" as="geometry" />
        </mxCell>
        <mxCell id="PKN3ZlRZeN5BIrlGkkB1-12" value="" style="endArrow=none;html=1;rounded=0;entryX=0;entryY=0.5;entryDx=0;entryDy=0;exitX=1;exitY=0.5;exitDx=0;exitDy=0;" edge="1" parent="1" source="PKN3ZlRZeN5BIrlGkkB1-8" target="PKN3ZlRZeN5BIrlGkkB1-2">
          <mxGeometry width="50" height="50" relative="1" as="geometry">
            <mxPoint x="-57" y="520" as="sourcePoint" />
            <mxPoint x="-20" y="499" as="targetPoint" />
          </mxGeometry>
        </mxCell>
        <mxCell id="PKN3ZlRZeN5BIrlGkkB1-14" value="" style="endArrow=none;html=1;rounded=0;entryX=0;entryY=0.5;entryDx=0;entryDy=0;exitX=1;exitY=0.5;exitDx=0;exitDy=0;" edge="1" parent="1" source="PKN3ZlRZeN5BIrlGkkB1-9" target="PKN3ZlRZeN5BIrlGkkB1-2">
          <mxGeometry width="50" height="50" relative="1" as="geometry">
            <mxPoint x="-80" y="455" as="sourcePoint" />
            <mxPoint y="520" as="targetPoint" />
          </mxGeometry>
        </mxCell>
        <mxCell id="PKN3ZlRZeN5BIrlGkkB1-15" value="" style="endArrow=none;html=1;rounded=0;entryX=0;entryY=0.5;entryDx=0;entryDy=0;exitX=1;exitY=0.5;exitDx=0;exitDy=0;" edge="1" parent="1" source="PKN3ZlRZeN5BIrlGkkB1-10" target="PKN3ZlRZeN5BIrlGkkB1-2">
          <mxGeometry width="50" height="50" relative="1" as="geometry">
            <mxPoint x="-70" y="490" as="sourcePoint" />
            <mxPoint x="10" y="525" as="targetPoint" />
          </mxGeometry>
        </mxCell>
        <mxCell id="PKN3ZlRZeN5BIrlGkkB1-16" value="" style="endArrow=none;html=1;rounded=0;entryX=0;entryY=0.5;entryDx=0;entryDy=0;exitX=1;exitY=0.5;exitDx=0;exitDy=0;" edge="1" parent="1" source="PKN3ZlRZeN5BIrlGkkB1-11" target="PKN3ZlRZeN5BIrlGkkB1-2">
          <mxGeometry width="50" height="50" relative="1" as="geometry">
            <mxPoint x="-40" y="510" as="sourcePoint" />
            <mxPoint x="40" y="515" as="targetPoint" />
          </mxGeometry>
        </mxCell>
        <mxCell id="PKN3ZlRZeN5BIrlGkkB1-20" style="edgeStyle=orthogonalEdgeStyle;rounded=0;orthogonalLoop=1;jettySize=auto;html=1;entryX=0;entryY=0.5;entryDx=0;entryDy=0;" edge="1" parent="1" source="PKN3ZlRZeN5BIrlGkkB1-18">
          <mxGeometry relative="1" as="geometry">
            <mxPoint x="340" y="480" as="targetPoint" />
          </mxGeometry>
        </mxCell>
        <mxCell id="PKN3ZlRZeN5BIrlGkkB1-18" value="reserva" style="rhombus;whiteSpace=wrap;html=1;" vertex="1" parent="1">
          <mxGeometry x="180" y="440" width="80" height="80" as="geometry" />
        </mxCell>
        <mxCell id="PKN3ZlRZeN5BIrlGkkB1-21" value="1 : 1" style="text;html=1;align=center;verticalAlign=middle;resizable=0;points=[];autosize=1;strokeColor=none;fillColor=none;" vertex="1" parent="1">
          <mxGeometry x="195" y="408" width="50" height="30" as="geometry" />
        </mxCell>
        <mxCell id="PKN3ZlRZeN5BIrlGkkB1-43" value="" style="edgeStyle=orthogonalEdgeStyle;rounded=0;orthogonalLoop=1;jettySize=auto;html=1;" edge="1" parent="1" source="PKN3ZlRZeN5BIrlGkkB1-22" target="PKN3ZlRZeN5BIrlGkkB1-42">
          <mxGeometry relative="1" as="geometry" />
        </mxCell>
        <mxCell id="PKN3ZlRZeN5BIrlGkkB1-22" value="coche" style="whiteSpace=wrap;html=1;aspect=fixed;" vertex="1" parent="1">
          <mxGeometry x="340" y="440" width="80" height="80" as="geometry" />
        </mxCell>
        <mxCell id="PKN3ZlRZeN5BIrlGkkB1-25" value="matricula" style="ellipse;whiteSpace=wrap;html=1;fillColor=#60a917;fontColor=#ffffff;strokeColor=#2D7600;" vertex="1" parent="1">
          <mxGeometry x="470" y="440" width="90" height="30" as="geometry" />
        </mxCell>
        <mxCell id="PKN3ZlRZeN5BIrlGkkB1-26" value="&lt;font style=&quot;font-size: 9px;&quot;&gt;modelo&lt;/font&gt;" style="ellipse;whiteSpace=wrap;html=1;" vertex="1" parent="1">
          <mxGeometry x="470" y="470" width="90" height="30" as="geometry" />
        </mxCell>
        <mxCell id="PKN3ZlRZeN5BIrlGkkB1-27" value="&lt;font style=&quot;font-size: 9px;&quot;&gt;color&lt;/font&gt;" style="ellipse;whiteSpace=wrap;html=1;" vertex="1" parent="1">
          <mxGeometry x="470" y="500" width="90" height="30" as="geometry" />
        </mxCell>
        <mxCell id="PKN3ZlRZeN5BIrlGkkB1-28" value="&lt;font style=&quot;font-size: 9px;&quot;&gt;marca&lt;/font&gt;" style="ellipse;whiteSpace=wrap;html=1;" vertex="1" parent="1">
          <mxGeometry x="470" y="530" width="90" height="30" as="geometry" />
        </mxCell>
        <mxCell id="PKN3ZlRZeN5BIrlGkkB1-29" value="" style="endArrow=none;html=1;rounded=0;entryX=0.044;entryY=0.552;entryDx=0;entryDy=0;exitX=1.039;exitY=0.457;exitDx=0;exitDy=0;exitPerimeter=0;entryPerimeter=0;" edge="1" parent="1" source="PKN3ZlRZeN5BIrlGkkB1-22" target="PKN3ZlRZeN5BIrlGkkB1-25">
          <mxGeometry width="50" height="50" relative="1" as="geometry">
            <mxPoint x="450" y="520" as="sourcePoint" />
            <mxPoint x="500" y="470" as="targetPoint" />
          </mxGeometry>
        </mxCell>
        <mxCell id="PKN3ZlRZeN5BIrlGkkB1-30" value="" style="endArrow=none;html=1;rounded=0;entryX=0;entryY=0.5;entryDx=0;entryDy=0;exitX=1;exitY=0.5;exitDx=0;exitDy=0;" edge="1" parent="1" source="PKN3ZlRZeN5BIrlGkkB1-22" target="PKN3ZlRZeN5BIrlGkkB1-26">
          <mxGeometry width="50" height="50" relative="1" as="geometry">
            <mxPoint x="440" y="510" as="sourcePoint" />
            <mxPoint x="491" y="490" as="targetPoint" />
          </mxGeometry>
        </mxCell>
        <mxCell id="PKN3ZlRZeN5BIrlGkkB1-31" value="" style="endArrow=none;html=1;rounded=0;entryX=0;entryY=0.333;entryDx=0;entryDy=0;exitX=1;exitY=0.5;exitDx=0;exitDy=0;entryPerimeter=0;" edge="1" parent="1" source="PKN3ZlRZeN5BIrlGkkB1-22" target="PKN3ZlRZeN5BIrlGkkB1-27">
          <mxGeometry width="50" height="50" relative="1" as="geometry">
            <mxPoint x="440" y="500" as="sourcePoint" />
            <mxPoint x="490" y="505" as="targetPoint" />
          </mxGeometry>
        </mxCell>
        <mxCell id="PKN3ZlRZeN5BIrlGkkB1-32" value="" style="endArrow=none;html=1;rounded=0;entryX=0;entryY=0.5;entryDx=0;entryDy=0;exitX=1;exitY=0.5;exitDx=0;exitDy=0;" edge="1" parent="1" source="PKN3ZlRZeN5BIrlGkkB1-22" target="PKN3ZlRZeN5BIrlGkkB1-28">
          <mxGeometry width="50" height="50" relative="1" as="geometry">
            <mxPoint x="450" y="520" as="sourcePoint" />
            <mxPoint x="500" y="550" as="targetPoint" />
          </mxGeometry>
        </mxCell>
        <mxCell id="PKN3ZlRZeN5BIrlGkkB1-37" style="edgeStyle=orthogonalEdgeStyle;rounded=0;orthogonalLoop=1;jettySize=auto;html=1;entryX=0.118;entryY=1.014;entryDx=0;entryDy=0;entryPerimeter=0;" edge="1" parent="1" source="PKN3ZlRZeN5BIrlGkkB1-34" target="PKN3ZlRZeN5BIrlGkkB1-2">
          <mxGeometry relative="1" as="geometry">
            <mxPoint x="10" y="530" as="targetPoint" />
            <Array as="points">
              <mxPoint x="9" y="595" />
            </Array>
          </mxGeometry>
        </mxCell>
        <mxCell id="PKN3ZlRZeN5BIrlGkkB1-34" value="avala" style="rhombus;whiteSpace=wrap;html=1;" vertex="1" parent="1">
          <mxGeometry x="30" y="570" width="60" height="50" as="geometry" />
        </mxCell>
        <mxCell id="PKN3ZlRZeN5BIrlGkkB1-36" style="edgeStyle=orthogonalEdgeStyle;rounded=0;orthogonalLoop=1;jettySize=auto;html=1;exitX=0.75;exitY=1;exitDx=0;exitDy=0;entryX=0.486;entryY=0.086;entryDx=0;entryDy=0;entryPerimeter=0;" edge="1" parent="1" source="PKN3ZlRZeN5BIrlGkkB1-2" target="PKN3ZlRZeN5BIrlGkkB1-34">
          <mxGeometry relative="1" as="geometry" />
        </mxCell>
        <mxCell id="PKN3ZlRZeN5BIrlGkkB1-38" value="0 : N" style="text;html=1;align=center;verticalAlign=middle;resizable=0;points=[];autosize=1;strokeColor=none;fillColor=none;" vertex="1" parent="1">
          <mxGeometry x="65" y="530" width="50" height="30" as="geometry" />
        </mxCell>
        <mxCell id="PKN3ZlRZeN5BIrlGkkB1-39" value="0 : N" style="text;html=1;align=center;verticalAlign=middle;resizable=0;points=[];autosize=1;strokeColor=none;fillColor=none;" vertex="1" parent="1">
          <mxGeometry x="-35" y="530" width="50" height="30" as="geometry" />
        </mxCell>
        <mxCell id="PKN3ZlRZeN5BIrlGkkB1-40" value="N : 0" style="text;html=1;align=center;verticalAlign=middle;resizable=0;points=[];autosize=1;strokeColor=none;fillColor=none;" vertex="1" parent="1">
          <mxGeometry x="60" y="410" width="50" height="30" as="geometry" />
        </mxCell>
        <mxCell id="PKN3ZlRZeN5BIrlGkkB1-41" value="0 : N" style="text;html=1;align=center;verticalAlign=middle;resizable=0;points=[];autosize=1;strokeColor=none;fillColor=none;" vertex="1" parent="1">
          <mxGeometry x="290" y="420" width="50" height="30" as="geometry" />
        </mxCell>
        <mxCell id="PKN3ZlRZeN5BIrlGkkB1-45" value="" style="edgeStyle=orthogonalEdgeStyle;rounded=0;orthogonalLoop=1;jettySize=auto;html=1;" edge="1" parent="1" source="PKN3ZlRZeN5BIrlGkkB1-42" target="PKN3ZlRZeN5BIrlGkkB1-44">
          <mxGeometry relative="1" as="geometry" />
        </mxCell>
        <mxCell id="PKN3ZlRZeN5BIrlGkkB1-42" value="asigna" style="rhombus;whiteSpace=wrap;html=1;" vertex="1" parent="1">
          <mxGeometry x="340" y="280" width="80" height="80" as="geometry" />
        </mxCell>
        <mxCell id="PKN3ZlRZeN5BIrlGkkB1-44" value="Garaje" style="whiteSpace=wrap;html=1;" vertex="1" parent="1">
          <mxGeometry x="480" y="290" width="120" height="60" as="geometry" />
        </mxCell>
        <mxCell id="PKN3ZlRZeN5BIrlGkkB1-46" value="codigo_garaje" style="ellipse;whiteSpace=wrap;html=1;fillColor=#60a917;fontColor=#ffffff;strokeColor=#2D7600;" vertex="1" parent="1">
          <mxGeometry x="640" y="280" width="90" height="30" as="geometry" />
        </mxCell>
        <mxCell id="PKN3ZlRZeN5BIrlGkkB1-47" value="" style="endArrow=none;html=1;rounded=0;exitX=1;exitY=0.5;exitDx=0;exitDy=0;entryX=0;entryY=0.667;entryDx=0;entryDy=0;entryPerimeter=0;" edge="1" parent="1" source="PKN3ZlRZeN5BIrlGkkB1-44" target="PKN3ZlRZeN5BIrlGkkB1-46">
          <mxGeometry width="50" height="50" relative="1" as="geometry">
            <mxPoint x="590" y="320" as="sourcePoint" />
            <mxPoint x="630" y="330" as="targetPoint" />
          </mxGeometry>
        </mxCell>
        <mxCell id="PKN3ZlRZeN5BIrlGkkB1-48" value="N : 1" style="text;html=1;align=center;verticalAlign=middle;resizable=0;points=[];autosize=1;strokeColor=none;fillColor=none;" vertex="1" parent="1">
          <mxGeometry x="355" y="238" width="50" height="30" as="geometry" />
        </mxCell>
        <mxCell id="PKN3ZlRZeN5BIrlGkkB1-51" value="&lt;font style=&quot;font-size: 9px;&quot;&gt;precio&lt;/font&gt;" style="ellipse;whiteSpace=wrap;html=1;" vertex="1" parent="1">
          <mxGeometry x="240" y="610" width="50" height="30" as="geometry" />
        </mxCell>
        <mxCell id="PKN3ZlRZeN5BIrlGkkB1-52" value="&lt;font style=&quot;font-size: 9px;&quot;&gt;precio&lt;/font&gt;" style="ellipse;whiteSpace=wrap;html=1;" vertex="1" parent="1">
          <mxGeometry x="470" y="560" width="90" height="30" as="geometry" />
        </mxCell>
        <mxCell id="PKN3ZlRZeN5BIrlGkkB1-53" value="" style="endArrow=none;html=1;rounded=0;entryX=0;entryY=0.5;entryDx=0;entryDy=0;exitX=1.044;exitY=0.563;exitDx=0;exitDy=0;exitPerimeter=0;" edge="1" parent="1" source="PKN3ZlRZeN5BIrlGkkB1-22" target="PKN3ZlRZeN5BIrlGkkB1-52">
          <mxGeometry width="50" height="50" relative="1" as="geometry">
            <mxPoint x="414" y="542.5" as="sourcePoint" />
            <mxPoint x="464" y="607.5" as="targetPoint" />
          </mxGeometry>
        </mxCell>
      </root>
    </mxGraphModel>
  </diagram>
</mxfile>
